<svg width="32" height="32" viewBox="0 0 32 32" fill="none" xmlns="http://www.w3.org/2000/svg">
<path d="M4 9.57134C3.9999 10.0653 4.17048 10.5442 4.48287 10.9269C4.79526 11.3096 5.23027 11.5725 5.71428 11.6713V25.4285C5.71632 26.1098 5.98789 26.7627 6.46969 27.2445C6.95148 27.7263 7.60435 27.9979 8.28571 27.9999H12.5714C12.7988 27.9999 13.0168 27.9096 13.1775 27.7489C13.3383 27.5881 13.4286 27.3701 13.4286 27.1428C13.4286 26.9154 13.3383 26.6974 13.1775 26.5367C13.0168 26.3759 12.7988 26.2856 12.5714 26.2856H8.28571C8.05838 26.2856 7.84037 26.1953 7.67962 26.0346C7.51888 25.8738 7.42857 25.6558 7.42857 25.4285V10.8571C7.42857 10.6297 7.33826 10.4117 7.17752 10.251C7.01677 10.0902 6.79876 9.99991 6.57143 9.99991H6.14286C6.02919 9.99991 5.92018 9.95476 5.83981 9.87439C5.75944 9.79402 5.71428 9.68501 5.71428 9.57134C5.71428 9.45768 5.75944 9.34867 5.83981 9.2683C5.92018 9.18792 6.02919 9.14277 6.14286 9.14277H10C10.2273 9.14277 10.4453 9.05247 10.6061 8.89172C10.7668 8.73097 10.8571 8.51296 10.8571 8.28563C10.8571 8.0583 10.7668 7.84028 10.6061 7.67954C10.4453 7.51879 10.2273 7.42849 10 7.42849H7.42857V6.57134C7.42857 6.34401 7.51888 6.126 7.67962 5.96525C7.84037 5.80451 8.05838 5.7142 8.28571 5.7142H16C16.2273 5.7142 16.4453 5.80451 16.6061 5.96525C16.7668 6.126 16.8571 6.34401 16.8571 6.57134V10.8571C16.8571 11.0844 16.9474 11.3024 17.1082 11.4631C17.2689 11.6239 17.487 11.7142 17.7143 11.7142H22C22.2273 11.7142 22.4453 11.8045 22.6061 11.9653C22.7668 12.126 22.8571 12.344 22.8571 12.5713V13.4285C22.8571 13.6558 22.9474 13.8738 23.1082 14.0346C23.2689 14.1953 23.487 14.2856 23.7143 14.2856C23.9416 14.2856 24.1596 14.1953 24.3204 14.0346C24.4811 13.8738 24.5714 13.6558 24.5714 13.4285V11.5685C24.5732 11.2306 24.5074 10.8958 24.3779 10.5837C24.2483 10.2716 24.0577 9.98864 23.8171 9.75134L18.82 4.7542C18.5827 4.51366 18.2997 4.32301 17.9876 4.19347C17.6756 4.06394 17.3407 3.99813 17.0029 3.99991H8.28571C7.60435 4.00195 6.95148 4.27352 6.46969 4.75532C5.98789 5.23711 5.71632 5.88998 5.71428 6.57134V7.47134C5.23027 7.57014 4.79526 7.83313 4.48287 8.21581C4.17048 8.59849 3.9999 9.07735 4 9.57134ZM14.2857 18.5713V25.4285C14.2877 26.1098 14.5593 26.7627 15.0411 27.2445C15.5229 27.7263 16.1758 27.9979 16.8571 27.9999H25.4286C26.1099 27.9979 26.7628 27.7263 27.2446 27.2445C27.7264 26.7627 27.998 26.1098 28 25.4285V18.5713C27.998 17.89 27.7264 17.2371 27.2446 16.7553C26.7628 16.2735 26.1099 16.0019 25.4286 15.9999H24.5714C24.5714 15.7726 24.4811 15.5546 24.3204 15.3938C24.1596 15.2331 23.9416 15.1428 23.7143 15.1428C23.487 15.1428 23.2689 15.2331 23.1082 15.3938C22.9474 15.5546 22.8571 15.7726 22.8571 15.9999H19.4286C19.4286 15.7726 19.3383 15.5546 19.1775 15.3938C19.0168 15.2331 18.7988 15.1428 18.5714 15.1428C18.3441 15.1428 18.1261 15.2331 17.9653 15.3938C17.8046 15.5546 17.7143 15.7726 17.7143 15.9999H16.8571C16.1758 16.0019 15.5229 16.2735 15.0411 16.7553C14.5593 17.2371 14.2877 17.89 14.2857 18.5713ZM22.8571 23.7142C22.8571 23.5447 22.9074 23.379 23.0016 23.238C23.0958 23.097 23.2296 22.9872 23.3863 22.9223C23.5429 22.8574 23.7152 22.8405 23.8815 22.8735C24.0478 22.9066 24.2005 22.9882 24.3204 23.1081C24.4403 23.228 24.5219 23.3807 24.555 23.547C24.588 23.7133 24.5711 23.8856 24.5062 24.0422C24.4413 24.1988 24.3314 24.3327 24.1905 24.4269C24.0495 24.5211 23.8838 24.5713 23.7143 24.5713C23.487 24.5713 23.2689 24.481 23.1082 24.3203C22.9474 24.1595 22.8571 23.9415 22.8571 23.7142ZM22.8571 20.2856C22.8571 20.1161 22.9074 19.9504 23.0016 19.8094C23.0958 19.6685 23.2296 19.5586 23.3863 19.4937C23.5429 19.4289 23.7152 19.4119 23.8815 19.445C24.0478 19.478 24.2005 19.5597 24.3204 19.6795C24.4403 19.7994 24.5219 19.9521 24.555 20.1184C24.588 20.2847 24.5711 20.457 24.5062 20.6136C24.4413 20.7703 24.3314 20.9041 24.1905 20.9983C24.0495 21.0925 23.8838 21.1428 23.7143 21.1428C23.487 21.1428 23.2689 21.0525 23.1082 20.8917C22.9474 20.731 22.8571 20.513 22.8571 20.2856ZM20.2857 23.7142C20.2857 23.5447 20.336 23.379 20.4302 23.238C20.5244 23.097 20.6582 22.9872 20.8148 22.9223C20.9715 22.8574 21.1438 22.8405 21.3101 22.8735C21.4763 22.9066 21.6291 22.9882 21.7489 23.1081C21.8688 23.228 21.9505 23.3807 21.9835 23.547C22.0166 23.7133 21.9996 23.8856 21.9348 24.0422C21.8699 24.1988 21.76 24.3327 21.6191 24.4269C21.4781 24.5211 21.3124 24.5713 21.1429 24.5713C20.9155 24.5713 20.6975 24.481 20.5368 24.3203C20.376 24.1595 20.2857 23.9415 20.2857 23.7142ZM20.2857 20.2856C20.2857 20.1161 20.336 19.9504 20.4302 19.8094C20.5244 19.6685 20.6582 19.5586 20.8148 19.4937C20.9715 19.4289 21.1438 19.4119 21.3101 19.445C21.4763 19.478 21.6291 19.5597 21.7489 19.6795C21.8688 19.7994 21.9505 19.9521 21.9835 20.1184C22.0166 20.2847 21.9996 20.457 21.9348 20.6136C21.8699 20.7703 21.76 20.9041 21.6191 20.9983C21.4781 21.0925 21.3124 21.1428 21.1429 21.1428C20.9155 21.1428 20.6975 21.0525 20.5368 20.8917C20.376 20.731 20.2857 20.513 20.2857 20.2856ZM17.7143 23.7142C17.7143 23.5447 17.7646 23.379 17.8587 23.238C17.9529 23.097 18.0868 22.9872 18.2434 22.9223C18.4 22.8574 18.5724 22.8405 18.7386 22.8735C18.9049 22.9066 19.0576 22.9882 19.1775 23.1081C19.2974 23.228 19.379 23.3807 19.4121 23.547C19.4452 23.7133 19.4282 23.8856 19.3633 24.0422C19.2984 24.1988 19.1886 24.3327 19.0476 24.4269C18.9067 24.5211 18.741 24.5713 18.5714 24.5713C18.3441 24.5713 18.1261 24.481 17.9653 24.3203C17.8046 24.1595 17.7143 23.9415 17.7143 23.7142ZM17.7143 20.2856C17.7143 20.1161 17.7646 19.9504 17.8587 19.8094C17.9529 19.6685 18.0868 19.5586 18.2434 19.4937C18.4 19.4289 18.5724 19.4119 18.7386 19.445C18.9049 19.478 19.0576 19.5597 19.1775 19.6795C19.2974 19.7994 19.379 19.9521 19.4121 20.1184C19.4452 20.2847 19.4282 20.457 19.3633 20.6136C19.2984 20.7703 19.1886 20.9041 19.0476 20.9983C18.9067 21.0925 18.741 21.1428 18.5714 21.1428C18.3441 21.1428 18.1261 21.0525 17.9653 20.8917C17.8046 20.731 17.7143 20.513 17.7143 20.2856Z" fill="#6759C1"/>
</svg>
