<svg width="32" height="32" viewBox="0 0 32 32" fill="none" xmlns="http://www.w3.org/2000/svg">
<path d="M23.2 23.1999C22.8818 23.1999 22.5765 23.3264 22.3515 23.5514C22.1264 23.7765 22 24.0817 22 24.3999C22 24.7182 21.8736 25.0234 21.6485 25.2485C21.4235 25.4735 21.1183 25.6 20.8 25.6H8.79996C8.4817 25.6 8.17648 25.4735 7.95143 25.2485C7.72639 25.0234 7.59996 24.7182 7.59996 24.3999V7.59989C7.59996 7.28163 7.72639 6.9764 7.95143 6.75136C8.17648 6.52631 8.4817 6.39989 8.79996 6.39989H14.8V9.9999C14.8 10.9547 15.1793 11.8704 15.8544 12.5455C16.5295 13.2206 17.4452 13.5999 18.4 13.5999H22V14.7999C22 15.1182 22.1264 15.4234 22.3515 15.6484C22.5765 15.8735 22.8818 15.9999 23.2 15.9999C23.5183 15.9999 23.8235 15.8735 24.0485 15.6484C24.2736 15.4234 24.4 15.1182 24.4 14.7999V12.3999C24.4 12.3999 24.4 12.3999 24.4 12.3279C24.3875 12.2177 24.3634 12.1091 24.328 12.0039C24.3331 11.9681 24.3331 11.9317 24.328 11.8959C24.2703 11.7725 24.1934 11.6591 24.1 11.5599L16.9 4.35988C16.8008 4.26654 16.6874 4.18958 16.564 4.13188H16.444C16.3308 4.0712 16.2096 4.02676 16.084 3.99988H8.79996C7.84518 3.99988 6.9295 4.37916 6.25437 5.0543C5.57924 5.72943 5.19995 6.64511 5.19995 7.59989V24.3999C5.19995 25.3547 5.57924 26.2704 6.25437 26.9455C6.9295 27.6207 7.84518 28 8.79996 28H20.8C21.7548 28 22.6705 27.6207 23.3456 26.9455C24.0207 26.2704 24.4 25.3547 24.4 24.3999C24.4 24.0817 24.2736 23.7765 24.0485 23.5514C23.8235 23.3264 23.5183 23.1999 23.2 23.1999ZM17.2 8.09189L20.308 11.1999H18.4C18.0817 11.1999 17.7765 11.0735 17.5515 10.8484C17.3264 10.6234 17.2 10.3182 17.2 9.9999V8.09189ZM25.6 18.3999H22.6C22.4421 18.399 22.2855 18.4293 22.1393 18.489C21.9931 18.5487 21.8601 18.6367 21.748 18.7479L20.26 20.2479L16.9 16.4079C16.7919 16.2841 16.6595 16.1838 16.5111 16.1132C16.3626 16.0427 16.2013 16.0034 16.037 15.9977C15.8727 15.9921 15.7091 16.0203 15.5561 16.0805C15.4032 16.1408 15.2643 16.2318 15.148 16.3479L13.108 18.3999H11.2C10.8817 18.3999 10.5765 18.5264 10.3514 18.7514C10.1264 18.9764 9.99997 19.2817 9.99997 19.5999C9.99997 19.9182 10.1264 20.2234 10.3514 20.4485C10.5765 20.6735 10.8817 20.7999 11.2 20.7999H13.6C13.7579 20.8008 13.9145 20.7706 14.0607 20.7109C14.2069 20.6511 14.3399 20.5632 14.452 20.4519L16 18.9519L19.36 22.7919C19.4684 22.9155 19.601 23.0155 19.7496 23.0856C19.8983 23.1558 20.0597 23.1947 20.224 23.1999C20.3819 23.2009 20.5385 23.1706 20.6847 23.1109C20.8309 23.0512 20.9639 22.9632 21.076 22.8519L23.092 20.7999H25.6C25.9183 20.7999 26.2235 20.6735 26.4486 20.4485C26.6736 20.2234 26.8 19.9182 26.8 19.5999C26.8 19.2817 26.6736 18.9764 26.4486 18.7514C26.2235 18.5264 25.9183 18.3999 25.6 18.3999Z" fill="#06919D"/>
</svg>
