<svg width="20" height="21" viewBox="0 0 20 21" fill="none" xmlns="http://www.w3.org/2000/svg">
<path d="M20 4.72011L15.405 0.865107L14.12 2.39511L18.715 6.25011L20 4.72011ZM5.88 2.39011L4.595 0.860107L0 4.71511L1.285 6.24511L5.88 2.39011ZM10.5 7.00011H9V13.0001L13.745 15.8551L14.5 14.6201L10.5 12.2501V7.00011ZM9.995 3.00011C5.02 3.00011 1 7.03011 1 12.0001C1 16.9701 5.02 21.0001 9.995 21.0001C14.97 21.0001 19 16.9701 19 12.0001C19 7.03011 14.97 3.00011 9.995 3.00011ZM10 19.0001C6.135 19.0001 3 15.8651 3 12.0001C3 8.13511 6.135 5.00011 10 5.00011C13.865 5.00011 17 8.13511 17 12.0001C17 15.8651 13.87 19.0001 10 19.0001Z" fill="#777777"/>
<path d="M20 4.72011L15.405 0.865107L14.12 2.39511L18.715 6.25011L20 4.72011ZM5.88 2.39011L4.595 0.860107L0 4.71511L1.285 6.24511L5.88 2.39011ZM10.5 7.00011H9V13.0001L13.745 15.8551L14.5 14.6201L10.5 12.2501V7.00011ZM9.995 3.00011C5.02 3.00011 1 7.03011 1 12.0001C1 16.9701 5.02 21.0001 9.995 21.0001C14.97 21.0001 19 16.9701 19 12.0001C19 7.03011 14.97 3.00011 9.995 3.00011ZM10 19.0001C6.135 19.0001 3 15.8651 3 12.0001C3 8.13511 6.135 5.00011 10 5.00011C13.865 5.00011 17 8.13511 17 12.0001C17 15.8651 13.87 19.0001 10 19.0001Z" fill="url(#paint0_linear_374_297)"/>
<defs>
<linearGradient id="paint0_linear_374_297" x1="3.78214" y1="5.38803" x2="18.4005" y2="19.9048" gradientUnits="userSpaceOnUse">
<stop stop-color="#FDC830"/>
<stop offset="1" stop-color="#F37335"/>
</linearGradient>
</defs>
</svg>
