<svg width="22" height="22" viewBox="0 0 22 22" fill="none" xmlns="http://www.w3.org/2000/svg">
<path d="M18.7 6.59991H17.6V3.29995C17.6 2.42475 17.2523 1.5854 16.6335 0.966534C16.0146 0.347673 15.1752 0 14.3 0H3.3C2.42479 0 1.58542 0.347673 0.966548 0.966534C0.347678 1.5854 0 2.42475 0 3.29995V16.4998C0.00108403 16.7169 0.0664266 16.9289 0.187793 17.109C0.30916 17.2891 0.481119 17.4292 0.682 17.5118C0.812547 17.5733 0.955706 17.6035 1.1 17.5998C1.24477 17.6006 1.38828 17.5728 1.5223 17.5181C1.65632 17.4634 1.77822 17.3827 1.881 17.2808L4.972 14.1788H6.6V15.7628C6.6 16.638 6.94768 17.4773 7.56655 18.0962C8.18542 18.7151 9.02479 19.0627 9.9 19.0627H17.512L20.119 21.6807C20.2218 21.7826 20.3437 21.8633 20.4777 21.918C20.6117 21.9728 20.7552 22.0005 20.9 21.9997C21.0443 22.0034 21.1875 21.9733 21.318 21.9117C21.5189 21.8292 21.6908 21.689 21.8122 21.5089C21.9336 21.3289 21.9989 21.1169 22 20.8997V9.89986C22 9.02466 21.6523 8.1853 21.0335 7.56644C20.4146 6.94758 19.5752 6.59991 18.7 6.59991ZM6.6 9.89986V11.9788H4.521C4.37623 11.978 4.23272 12.0057 4.0987 12.0605C3.96468 12.1152 3.84278 12.1959 3.74 12.2978L2.2 13.8488V3.29995C2.2 3.00822 2.31589 2.72843 2.52218 2.52215C2.72847 2.31586 3.00826 2.19997 3.3 2.19997H14.3C14.5917 2.19997 14.8715 2.31586 15.0778 2.52215C15.2841 2.72843 15.4 3.00822 15.4 3.29995V6.59991H9.9C9.02479 6.59991 8.18542 6.94758 7.56655 7.56644C6.94768 8.1853 6.6 9.02466 6.6 9.89986ZM19.8 18.2487L18.7 17.1488C18.5981 17.0448 18.4766 16.9621 18.3426 16.9055C18.2085 16.8488 18.0645 16.8194 17.919 16.8188H9.9C9.60826 16.8188 9.32847 16.7029 9.12218 16.4966C8.91589 16.2903 8.8 16.0105 8.8 15.7188V9.89986C8.8 9.60813 8.91589 9.32834 9.12218 9.12206C9.32847 8.91577 9.60826 8.79988 9.9 8.79988H18.7C18.9917 8.79988 19.2715 8.91577 19.4778 9.12206C19.6841 9.32834 19.8 9.60813 19.8 9.89986V18.2487Z" fill="#777777"/>
<path d="M18.7 6.59991H17.6V3.29995C17.6 2.42475 17.2523 1.5854 16.6335 0.966534C16.0146 0.347673 15.1752 0 14.3 0H3.3C2.42479 0 1.58542 0.347673 0.966548 0.966534C0.347678 1.5854 0 2.42475 0 3.29995V16.4998C0.00108403 16.7169 0.0664266 16.9289 0.187793 17.109C0.30916 17.2891 0.481119 17.4292 0.682 17.5118C0.812547 17.5733 0.955706 17.6035 1.1 17.5998C1.24477 17.6006 1.38828 17.5728 1.5223 17.5181C1.65632 17.4634 1.77822 17.3827 1.881 17.2808L4.972 14.1788H6.6V15.7628C6.6 16.638 6.94768 17.4773 7.56655 18.0962C8.18542 18.7151 9.02479 19.0627 9.9 19.0627H17.512L20.119 21.6807C20.2218 21.7826 20.3437 21.8633 20.4777 21.918C20.6117 21.9728 20.7552 22.0005 20.9 21.9997C21.0443 22.0034 21.1875 21.9733 21.318 21.9117C21.5189 21.8292 21.6908 21.689 21.8122 21.5089C21.9336 21.3289 21.9989 21.1169 22 20.8997V9.89986C22 9.02466 21.6523 8.1853 21.0335 7.56644C20.4146 6.94758 19.5752 6.59991 18.7 6.59991ZM6.6 9.89986V11.9788H4.521C4.37623 11.978 4.23272 12.0057 4.0987 12.0605C3.96468 12.1152 3.84278 12.1959 3.74 12.2978L2.2 13.8488V3.29995C2.2 3.00822 2.31589 2.72843 2.52218 2.52215C2.72847 2.31586 3.00826 2.19997 3.3 2.19997H14.3C14.5917 2.19997 14.8715 2.31586 15.0778 2.52215C15.2841 2.72843 15.4 3.00822 15.4 3.29995V6.59991H9.9C9.02479 6.59991 8.18542 6.94758 7.56655 7.56644C6.94768 8.1853 6.6 9.02466 6.6 9.89986ZM19.8 18.2487L18.7 17.1488C18.5981 17.0448 18.4766 16.9621 18.3426 16.9055C18.2085 16.8488 18.0645 16.8194 17.919 16.8188H9.9C9.60826 16.8188 9.32847 16.7029 9.12218 16.4966C8.91589 16.2903 8.8 16.0105 8.8 15.7188V9.89986C8.8 9.60813 8.91589 9.32834 9.12218 9.12206C9.32847 8.91577 9.60826 8.79988 9.9 8.79988H18.7C18.9917 8.79988 19.2715 8.91577 19.4778 9.12206C19.6841 9.32834 19.8 9.60813 19.8 9.89986V18.2487Z" fill="url(#paint0_linear_374_245)"/>
<defs>
<linearGradient id="paint0_linear_374_245" x1="4.16036" y1="4.9461" x2="20.1292" y2="20.915" gradientUnits="userSpaceOnUse">
<stop stop-color="#FDC830"/>
<stop offset="1" stop-color="#F37335"/>
</linearGradient>
</defs>
</svg>
